<svg width="51" height="50" viewBox="0 0 51 50" fill="none" xmlns="http://www.w3.org/2000/svg">
<g clip-path="url(#clip0_5_114)">
<path d="M42.298 12.5H37.6875C37.9201 11.8542 38.0682 11.1458 38.0682 10.4167C38.0682 6.95832 35.2342 4.16666 31.7235 4.16666C29.5028 4.16666 27.5783 5.29166 26.4362 6.97916L25.3788 8.37499L24.3213 6.95832C23.1793 5.29166 21.2547 4.16666 19.0341 4.16666C15.5234 4.16666 12.6894 6.95832 12.6894 10.4167C12.6894 11.1458 12.8374 11.8542 13.0701 12.5H8.4596C6.11206 12.5 4.25095 14.3542 4.25095 16.6667L4.2298 39.5833C4.2298 41.8958 6.11206 43.75 8.4596 43.75H42.298C44.6455 43.75 46.5278 41.8958 46.5278 39.5833V16.6667C46.5278 14.3542 44.6455 12.5 42.298 12.5ZM31.7235 8.33332C32.8867 8.33332 33.8384 9.27082 33.8384 10.4167C33.8384 11.5625 32.8867 12.5 31.7235 12.5C30.5603 12.5 29.6086 11.5625 29.6086 10.4167C29.6086 9.27082 30.5603 8.33332 31.7235 8.33332ZM19.0341 8.33332C20.1973 8.33332 21.149 9.27082 21.149 10.4167C21.149 11.5625 20.1973 12.5 19.0341 12.5C17.8709 12.5 16.9192 11.5625 16.9192 10.4167C16.9192 9.27082 17.8709 8.33332 19.0341 8.33332ZM42.298 39.5833H8.4596V35.4167H42.298V39.5833ZM42.298 29.1667H8.4596V16.6667H19.2033L14.8043 22.5625L18.2304 25L23.2639 18.25L25.3788 15.4167L27.4937 18.25L32.5272 25L35.9533 22.5625L31.5543 16.6667H42.298V29.1667Z" fill="#F2F2F2"/>
</g>
<defs>
<clipPath id="clip0_5_114">
<rect width="50.7576" height="50" fill="white"/>
</clipPath>
</defs>
</svg>
